HIERARCHY
ROOT Hips
{
	OFFSET 0.000000 0.000000 0.000000
	CHANNELS 6 Xposition Yposition Zposition Zrotation Yrotation Xrotation 
	JOINT LHipJoint
	{
		OFFSET 0.000000 0.000000 0.000000
		CHANNELS 3 Zrotation Yrotation Xrotation
		JOINT LeftUpLeg
		{
			OFFSET 1.363060 -1.794630 0.839290
			CHANNELS 3 Zrotation Yrotation Xrotation
			JOINT LeftLeg
			{
				OFFSET 2.448110 -6.726130 0.000000
				CHANNELS 3 Zrotation Yrotation Xrotation
				JOINT LeftFoot
				{
					OFFSET 2.562200 -7.039590 0.000000
					CHANNELS 3 Zrotation Yrotation Xrotation
					JOINT LeftToeBase
					{
						OFFSET 0.157640 -0.433110 2.322550
						CHANNELS 3 Zrotation Yrotation Xrotation
						End Site
						{
							OFFSET 0.000000 0.000000 0.000000
						}
					}
				}
			}
		}
	}
	JOINT RHipJoint
	{
		OFFSET 0.000000 0.000000 0.000000
		CHANNELS 3 Zrotation Yrotation Xrotation
		JOINT RightUpLeg
		{
			OFFSET -1.305520 -1.794630 0.839290
			CHANNELS 3 Zrotation Yrotation Xrotation
			JOINT RightLeg
			{
				OFFSET -2.542530 -6.985550 0.000000
				CHANNELS 3 Zrotation Yrotation Xrotation
				JOINT RightFoot
				{
					OFFSET -2.568260 -7.056230 0.000000
					CHANNELS 3 Zrotation Yrotation Xrotation
					JOINT RightToeBase
					{
						OFFSET -0.164730 -0.452590 2.363150
						CHANNELS 3 Zrotation Yrotation Xrotation
						End Site
						{
							OFFSET 0.000000 0.000000 0.000000
						}
					}
				}
			}
		}
	}
	JOINT LowerBack
	{
		OFFSET 0.000000 0.000000 0.000000
		CHANNELS 3 Zrotation Yrotation Xrotation
		JOINT Spine
		{
			OFFSET 0.028270 2.035590 -0.193380
			CHANNELS 3 Zrotation Yrotation Xrotation
			JOINT Spine1
			{
				OFFSET 0.056720 2.048850 -0.042750
				CHANNELS 3 Zrotation Yrotation Xrotation
				JOINT Neck
				{
					OFFSET 0.000000 0.000000 0.000000
					CHANNELS 3 Zrotation Yrotation Xrotation
					JOINT Neck1
					{
						OFFSET -0.054170 1.746240 0.172020
						CHANNELS 3 Zrotation Yrotation Xrotation
						JOINT Head
						{
							OFFSET 0.104070 1.761360 -0.123970
							CHANNELS 3 Zrotation Yrotation Xrotation
							End Site
							{
								OFFSET 0.000000 0.000000 0.000000
							}
						}
					}
				}
				JOINT LeftShoulder
				{
					OFFSET 0.000000 0.000000 0.000000
					CHANNELS 3 Zrotation Yrotation Xrotation
					JOINT LeftArm
					{
						OFFSET 3.362410 1.200890 -0.311210
						CHANNELS 3 Zrotation Yrotation Xrotation
						JOINT LeftForeArm
						{
							OFFSET 4.983000 -0.000000 -0.000000
							CHANNELS 3 Zrotation Yrotation Xrotation
							JOINT LeftHand
							{
								OFFSET 3.483560 -0.000000 -0.000000
								CHANNELS 3 Zrotation Yrotation Xrotation
								JOINT LeftFingerBase
								{
									OFFSET 0.000000 0.000000 0.000000
									CHANNELS 3 Zrotation Yrotation Xrotation
									JOINT LeftHandIndex1
									{
										OFFSET 0.715260 -0.000000 -0.000000
										CHANNELS 3 Zrotation Yrotation Xrotation
										End Site
										{
											OFFSET 0.000000 0.000000 0.000000
										}
									}
								}
								JOINT LThumb
								{
									OFFSET 0.000000 0.000000 0.000000
									CHANNELS 3 Zrotation Yrotation Xrotation
									End Site
									{
										OFFSET 0.000000 0.000000 0.000000
									}
								}
							}
						}
					}
				}
				JOINT RightShoulder
				{
					OFFSET 0.000000 0.000000 0.000000
					CHANNELS 3 Zrotation Yrotation Xrotation
					JOINT RightArm
					{
						OFFSET -3.136600 1.374050 -0.404650
						CHANNELS 3 Zrotation Yrotation Xrotation
						JOINT RightForeArm
						{
							OFFSET -5.241900 -0.000000 -0.000000
							CHANNELS 3 Zrotation Yrotation Xrotation
							JOINT RightHand
							{
								OFFSET -3.444170 -0.000000 -0.000000
								CHANNELS 3 Zrotation Yrotation Xrotation
								JOINT RightFingerBase
								{
									OFFSET 0.000000 0.000000 0.000000
									CHANNELS 3 Zrotation Yrotation Xrotation
									JOINT RightHandIndex1
									{
										OFFSET -0.622530 -0.000000 -0.000000
										CHANNELS 3 Zrotation Yrotation Xrotation
										End Site
										{
											OFFSET 0.000000 0.000000 0.000000
										}
									}
								}
								JOINT RThumb
								{
									OFFSET 0.000000 0.000000 0.000000
									CHANNELS 3 Zrotation Yrotation Xrotation
									End Site
									{
										OFFSET 0.000000 0.000000 0.000000
									}
								}
							}
						}
					}
				}
			}
		}
	}
}
MOTION
Frames: 11
Frame Time: 0.016667
0.179090 16.411891 -1.053199 -2.345512 7.901861 -2.474385 -16.209027 -26.384424 -26.195371 7.551256 -5.030986 -8.683856 20.525414 28.208771 73.905445 10.674810 -2.785649 15.642185 0.000000 0.000000 0.000000 -10.406457 -2.168735 -6.601079 34.748092 13.997013 28.820898 57.405843 7.094672 40.852003 127.611429 20.320449 -102.156286 0.000000 0.000000 0.000000 15.298474 14.090338 27.525517 -21.100303 7.084017 -11.299257 -13.183627 9.545970 -3.507435 -15.015535 3.136819 -16.102178 11.446708 1.254199 1.464184 0.000000 0.000000 0.000000 24.015893 0.380642 4.461630 -42.392727 -14.114505 -49.814066 -179.457436 67.477073 178.455428 27.128557 23.535159 -0.472768 28.128705 22.412704 0.000000 0.000000 0.000000 0.000000 0.000000 0.000000 0.000000 -20.743709 -8.236039 1.066152 67.930796 19.677777 -0.852538 27.184584 22.213753 -0.429282 -6.509664 8.537697 -0.216501 -6.549859 8.521496 0.000000 0.000000 0.000000 0.000000 0.000000 0.000000 0.000000 
0.083003 16.652754 -0.799352 -1.070790 9.197377 0.222868 -20.206974 -19.489684 -21.489632 2.437414 -3.763998 -11.519117 21.725687 17.134951 65.430867 4.313638 -6.844806 -6.621739 0.000000 0.000000 0.000000 -7.497935 -2.177278 -5.743805 30.196881 11.257682 24.993339 47.222925 0.270858 39.895161 128.914673 -0.014142 -93.400894 0.000000 0.000000 0.000000 20.597897 11.358926 23.246479 -32.919754 6.513492 4.684420 -9.471073 2.175633 -18.923441 -15.336637 2.415629 -24.928524 14.129217 0.861445 7.019586 0.000000 0.000000 0.000000 11.505375 2.282793 5.213495 -41.767081 -5.880916 -14.768102 -72.135359 37.219822 -0.159500 -0.365923 5.584886 -0.079257 -0.354636 5.590315 -0.000000 0.000000 0.000000 0.000000 0.000000 0.000000 0.000000 -7.537229 -10.746415 5.040768 83.913583 20.116130 -6.511616 5.501279 35.347877 0.113157 -0.825805 4.507397 0.056719 -0.820554 4.508637 0.000000 0.000000 0.000000 0.000000 0.000000 0.000000 0.000000 
0.008660 16.895436 -0.546393 0.205363 12.751838 0.916230 -21.747092 -9.221134 -15.433953 -8.604126 -5.418509 -10.436417 27.252027 4.537126 48.271550 3.458042 -16.367645 -25.222869 0.000000 0.000000 0.000000 -4.260921 -4.331237 -2.358116 25.257507 8.239703 20.663220 35.838544 -7.223792 39.158478 123.745095 -23.941653 -82.048040 0.000000 0.000000 0.000000 22.978131 10.462800 13.683667 -43.413883 14.183170 32.751813 7.111548 1.503350 -40.681374 -6.021418 -0.638509 -34.818134 2.893447 -1.054534 17.080119 0.000000 0.000000 0.000000 6.130422 6.216740 5.548538 -51.162389 -5.905881 -8.181309 -55.627296 29.611488 -0.074463 0.342406 1.577378 -0.037245 0.342196 1.577922 -0.000000 0.000000 0.000000 0.000000 0.000000 0.000000 0.000000 1.760677 -17.441184 3.270538 79.458667 17.517410 -2.053995 1.595591 51.421096 0.203681 0.772192 1.142705 0.102083 0.780691 1.144870 0.000000 0.000000 0.000000 0.000000 0.000000 0.000000 0.000000 
-0.058627 16.972175 -0.141302 0.833457 15.664390 -2.302478 -14.583982 0.401325 -16.719521 -26.495617 -3.513014 1.718026 34.880632 -3.583250 34.539108 3.171260 -17.459005 -22.800819 0.000000 0.000000 0.000000 -5.703910 -9.117957 3.928280 25.854003 9.904507 20.001370 36.619982 -3.391605 39.599207 129.270523 -18.408735 -86.673715 0.000000 0.000000 0.000000 17.928027 8.929888 7.649595 -30.050870 14.165002 51.195555 2.508306 1.170809 -47.220392 -3.444596 0.949296 -37.976286 2.690580 -0.663842 15.577819 0.000000 0.000000 0.000000 5.261231 7.157969 3.859745 -53.019836 -8.816273 -11.241481 -69.130183 33.664880 -0.166393 -0.447245 2.201014 -0.083240 -0.448287 2.203173 -0.000000 0.000000 0.000000 0.000000 0.000000 0.000000 0.000000 -3.899396 -19.964121 2.176656 82.150274 18.146968 0.254969 7.551811 50.217421 0.178983 0.448533 1.561104 0.089703 0.456134 1.562773 0.000000 0.000000 0.000000 0.000000 0.000000 0.000000 0.000000 
-0.125545 17.048832 0.263068 0.891166 17.914374 -4.932997 -5.558844 8.933317 -16.215332 -40.371484 1.804303 14.014591 40.904481 -9.276329 17.097437 2.999172 -17.072211 -14.205725 0.000000 0.000000 0.000000 -7.115143 -13.846125 9.891602 26.208319 11.991912 19.073184 37.333209 0.341605 40.611354 133.490914 -12.573709 -90.242292 0.000000 0.000000 0.000000 10.445615 7.595243 2.064681 -13.891102 8.505617 66.774134 -4.082435 -0.338920 -51.040199 -0.946838 2.453376 -39.177725 2.320336 -0.176018 12.233743 0.000000 0.000000 0.000000 3.388234 8.172467 2.909658 -55.123916 -11.842497 -14.739886 -82.801689 34.843369 -0.304565 -0.866246 2.581018 -0.152452 -0.869799 2.585974 -0.000000 0.000000 0.000000 0.000000 0.000000 0.000000 0.000000 -10.129776 -21.785937 0.979895 84.772914 19.138870 2.160932 13.505823 48.443057 0.144175 0.121392 2.089805 0.072247 0.127407 2.090989 0.000000 0.000000 0.000000 0.000000 0.000000 0.000000 0.000000 
-0.217972 17.091322 0.446125 1.357212 19.227037 -8.553235 2.343507 9.531172 -18.649920 -47.376467 10.659510 25.983806 42.300249 -10.100490 4.511482 1.676584 -12.106821 0.253237 0.000000 0.000000 0.000000 -9.287585 -14.239670 10.558075 28.207106 9.994404 23.696193 39.337223 5.376610 40.748979 137.530052 -3.418201 -94.332904 0.000000 0.000000 0.000000 4.030805 7.290153 4.283866 -0.042448 1.083243 71.243646 -13.539308 -3.308913 -51.775301 -5.031300 3.876505 -42.456895 5.878807 0.418991 11.843458 0.000000 0.000000 0.000000 3.432022 7.750600 5.196521 -58.966246 -15.168949 -24.502945 -90.968016 43.021209 -0.898542 -1.263535 5.561269 -0.450180 -1.279174 5.588528 -0.000000 0.000000 0.000000 0.000000 0.000000 0.000000 0.000000 -14.974417 -24.446106 1.019933 88.176922 19.168665 1.866929 14.501576 45.703209 0.137933 0.053974 2.532433 0.069105 0.059528 2.533533 0.000000 0.000000 0.000000 0.000000 0.000000 0.000000 0.000000 
-0.309144 17.133533 0.624475 2.002378 21.681699 -11.248494 6.927070 8.892567 -21.493734 -52.023821 16.429260 32.877837 42.961592 -9.940155 0.618374 0.921209 -7.364476 12.934675 0.000000 0.000000 0.000000 -11.460666 -15.131956 10.757282 29.617434 7.345060 27.693263 40.697362 9.710074 40.869926 139.985172 4.076666 -96.871266 0.000000 0.000000 0.000000 1.354439 10.956008 6.996156 10.257843 -3.500726 73.846279 -23.199482 -4.413507 -46.214910 -13.268215 3.832787 -48.293347 9.113825 1.234196 9.768097 0.000000 0.000000 0.000000 4.982919 9.114184 25.313063 -63.522064 -45.750062 -59.176494 -142.755389 76.021843 177.037985 26.603440 12.069307 -1.459632 26.679594 11.826536 -0.000000 0.000000 0.000000 0.000000 0.000000 0.000000 0.000000 -17.360723 -35.793835 -1.970020 88.812405 17.397049 2.039189 15.368826 43.809382 0.129000 -0.120724 2.985221 0.064627 -0.115572 2.986244 0.000000 0.000000 0.000000 0.000000 0.000000 0.000000 0.000000 
-0.365396 17.192254 0.783801 0.254040 21.492739 -12.893800 9.034300 9.746061 -20.743518 -52.514903 16.950664 34.382878 44.360556 -10.229808 -0.340773 0.857407 -6.309818 16.832706 0.000000 0.000000 0.000000 -10.234786 -14.666484 9.662406 29.943694 4.116552 30.118190 38.941561 11.364295 40.578091 141.285992 3.816461 -96.947567 0.000000 0.000000 0.000000 -4.449972 9.086730 7.451559 23.088356 -9.503725 71.838680 -36.249144 -4.843398 -41.488960 -26.548659 4.308573 -48.585890 20.434322 3.097070 8.430750 0.000000 0.000000 0.000000 8.807749 9.085571 36.551512 -74.788134 -56.052953 -62.792910 157.714571 50.488006 -7.023307 42.830759 8.411799 -4.588376 42.514034 9.941205 0.000000 0.000000 0.000000 0.000000 0.000000 0.000000 0.000000 -18.595702 -38.113511 -3.869041 91.698931 15.471069 1.076942 14.552778 42.772496 0.116725 -0.193824 2.938284 0.058475 -0.189222 2.939206 0.000000 0.000000 0.000000 0.000000 0.000000 0.000000 0.000000 
-0.420126 17.250816 0.940700 -1.216036 20.891157 -13.584488 10.999308 10.732581 -20.396157 -52.989104 17.493736 35.362255 45.641039 -10.504065 -1.412163 0.879583 -5.349930 20.481296 0.000000 0.000000 0.000000 -8.485758 -13.137300 7.334013 29.677621 0.676879 31.880049 39.103968 13.623652 41.485334 142.847147 7.538458 -97.921633 0.000000 0.000000 0.000000 -10.313028 5.166636 9.886585 33.860617 -13.602175 64.565390 -43.239425 -6.535940 -44.529289 -30.508071 7.555063 -41.788514 28.584870 3.824231 7.106283 0.000000 0.000000 0.000000 10.795696 1.271736 17.417429 -81.789365 -20.283802 -13.897367 -154.240023 29.347039 -4.399689 17.795508 3.606854 -2.734086 17.620927 5.000649 -0.000000 0.000000 0.000000 0.000000 0.000000 0.000000 0.000000 -22.887448 -28.138988 0.556297 95.626032 14.868168 -0.383050 12.513116 40.666975 0.104405 -0.253944 2.912157 0.052299 -0.249873 2.913007 0.000000 0.000000 0.000000 0.000000 0.000000 0.000000 0.000000 
-0.456998 17.322727 1.100846 -1.507988 21.953903 -13.289084 11.276766 10.534564 -20.053162 -53.237995 17.436953 35.644343 46.534814 -10.872500 -2.331458 0.930384 -4.823577 23.156826 0.000000 0.000000 0.000000 -7.267415 -13.303197 7.822821 28.345935 0.272514 31.128873 40.535503 15.386826 41.613787 143.486838 10.540853 -98.765652 0.000000 0.000000 0.000000 -12.081663 5.729109 9.742669 37.311547 -14.110408 62.763644 -43.674749 -6.526619 -43.927003 -33.106564 8.070189 -42.081415 30.365008 4.284769 6.254433 0.000000 0.000000 0.000000 13.501332 -0.686779 15.624348 -88.299309 -14.350339 2.471543 -148.503882 21.710170 -3.078357 9.117135 1.909586 -1.847103 9.007531 2.884926 -0.000000 0.000000 0.000000 0.000000 0.000000 0.000000 0.000000 -23.426145 -28.052040 0.393989 94.952231 14.739174 -0.209095 12.277570 39.565361 0.090815 -0.327837 2.849754 0.045495 -0.324203 2.850513 0.000000 0.000000 0.000000 0.000000 0.000000 0.000000 0.000000 
-0.493717 17.394150 1.258803 -1.741844 23.142471 -12.947355 11.468435 10.197477 -19.740488 -53.424729 17.355506 35.901298 47.344086 -11.212182 -3.301492 0.986100 -4.294829 25.747496 0.000000 0.000000 0.000000 -6.117796 -13.563434 8.367131 27.013857 -0.090748 30.301876 42.060669 17.182930 41.736617 143.990253 13.590426 -99.624143 0.000000 0.000000 0.000000 -13.575630 6.588431 9.639584 39.519799 -14.260262 61.038670 -43.254299 -6.057007 -42.960180 -35.774579 8.313067 -43.528504 31.780038 4.839288 5.214239 0.000000 0.000000 0.000000 16.402430 -2.245952 15.528757 -94.730814 -10.372902 10.243053 -146.423966 19.309284 -2.458398 5.384663 1.196430 -1.436289 5.300458 1.930130 0.000000 0.000000 0.000000 0.000000 0.000000 0.000000 0.000000 -23.053928 -28.749434 -0.510015 93.811675 14.787933 0.331817 12.051799 38.584463 0.080016 -0.404832 2.774305 0.040094 -0.401473 2.775010 0.000000 0.000000 0.000000 0.000000 0.000000 0.000000 0.000000 
